# xmcd
#
# Track frame offsets:
#	150
#	8709
#	42861
#	58579
#	86371
#	127466
#	173835
#	208192
#	229885
#	261108
#	281464
#	316671
#
# Disc length: 4700 seconds
#
# Revision: 1
# Processed by: cddbd v1.5.2PL0 Copyright (c) Steve Scherf et al.
# Submitted via: audiograbber 1.83.01
#
DISCID=a3125a0c
DTITLE=Grateful Dead - 78-02-03A Dane County Coliseum, Madison WI
DYEAR=1900
DGENRE=
TTITLE0=Tuning
TTITLE1=Cold Rain and Snow
TTITLE2=Mexicali Blues
TTITLE3=Big River
TTITLE4=They Love Each Other
TTITLE5=Looks Like Rain
TTITLE6=Loser
TTITLE7=Passenger
TTITLE8=Brown Eyed Women
TTITLE9=El Paso
TTITLE10=Peggy-O
TTITLE11=The Music Never Stopped
EXTD=
EXTT0=
EXTT1=
EXTT2=
EXTT3=
EXTT4=
EXTT5=
EXTT6=
EXTT7=
EXTT8=
EXTT9=
EXTT10=
EXTT11=
PLAYORDER=
